#!Matlab matrix to amc conversion
:FULLY-SPECIFIED
:DEGREES
1
root 9.287220 16.950000 -34.276200 0.000000 0.000000 0.000000
lowerback 0.000000 0.000000 0.000000
upperback 0.000000 0.000000 0.000000
thorax 0.000000 0.000000 0.000000
lowerneck -16.000000 0.000000 0.000000
upperneck 21.000000 0.000000 0.000000
head 11.000000 0.000000 0.000000
rclavicle 0.000000 0.000000
rhumerus 0.000000 0.000000 0.000000
rradius 0.000000
rwrist 0.000000
rhand 0.000000 0.000000
rfingers 0.000000
rthumb 0.000000 0.000000
lclavicle 0.000000 0.000000
lhumerus 0.000000 0.000000 0.000000
lradius 0.000000
lwrist 0.000000
lhand 0.000000 0.000000
lfingers 0.000000
lthumb 0.000000 0.000000
rfemur 0.000000 0.000000 21.000000
rtibia 0.000000
rfoot 0.000000 0.000000
rtoes 0.000000
lfemur 0.000000 0.000000 -21.000000
ltibia 0.000000
lfoot 0.000000 0.000000
ltoes 0.000000
2
root 9.287220 16.950000 -34.276200 1.623579 1.634016 -0.463897
lowerback 6.702138 0.986165 4.768894
upperback 2.248180 1.672802 1.280146
thorax -1.283269 0.839219 -1.497010
lowerneck -11.522508 2.794916 0.280390
upperneck 5.494454 3.887601 -2.762320
head 4.110140 1.825548 -0.784848
rclavicle -0.000000 0.000000
rhumerus -19.620441 8.966616 -83.367341
rradius 40.492640
rwrist -14.559461
rhand -20.414530 15.959690
rfingers 7.125020
rthumb 5.943786 -13.843480
lclavicle -0.000000 0.000000
lhumerus -47.919807 21.356835 71.798921
lradius 21.713294
lwrist 9.485628
lhand -17.994499 23.415759
lfingers 7.125020
lthumb 8.255953 53.019419
rfemur 4.105660 5.803754 28.755657
rtibia 22.244332
rfoot -18.880797 -3.881036
rtoes 0.408412
lfemur -27.720899 -1.599912 -17.522113
ltibia 41.318284
lfoot -10.862920 12.319444
ltoes -13.382660
3
root 9.273270 17.016600 -33.905900 1.725739 1.634016 -0.502760
lowerback 6.548051 1.144108 4.903681
upperback 2.325680 1.884248 1.229654
thorax -1.114813 0.951157 -1.633919
lowerneck -11.262372 3.209145 0.725879
upperneck 5.275501 4.375577 -3.138324
head 4.016719 2.066346 -0.950563
rclavicle -0.000000 0.000000
rhumerus -17.408597 10.619378 -82.509100
rradius 43.727761
rwrist -15.206859
rhand -20.840335 16.639123
rfingers 7.125020
rthumb 5.528639 -13.176047
lclavicle -0.000000 0.000000
lhumerus -49.261882 22.449945 70.729674
lradius 21.568942
lwrist 9.185836
lhand -17.875810 23.212405
lfingers 7.125020
lthumb 8.369773 52.825552
rfemur 8.267144 5.688778 28.573574
rtibia 18.456383
rfoot -17.757663 -3.094236
rtoes -0.778999
lfemur -28.083985 -2.973202 -16.817037
ltibia 33.925249
lfoot -11.891550 13.962396
ltoes -13.534758
4
root 9.268420 17.025800 -33.555600 1.851133 1.634016 -0.473280
lowerback 6.404246 1.296038 5.061809
upperback 2.400991 2.092224 1.187152
thorax -0.954084 1.060232 -1.765424
lowerneck -10.988093 3.626230 1.197307
upperneck 5.062817 4.867914 -3.519675
head 3.925349 2.308864 -1.122942
rclavicle -0.000000 0.000000
rhumerus -15.222259 12.226839 -81.638857
rradius 46.930062
rwrist -15.798926
rhand -21.265108 17.222433
rfingers 7.125020
rthumb 5.114653 -12.614746
lclavicle -0.000000 0.000000
lhumerus -50.557604 23.518418 69.695305
lradius 21.439375
lwrist 8.860224
lhand -17.758649 23.024365
lfingers 7.125020
lthumb 8.481928 52.646884
rfemur 12.444160 5.563775 28.411783
rtibia 14.856448
rfoot -16.637246 -2.313971
rtoes -1.988011
lfemur -28.364487 -4.273848 -16.132935
ltibia 26.585841
lfoot -12.847578 15.450324
ltoes -13.654966
5
root 9.249270 17.016300 -33.220600 1.955537 1.634016 0.001780
lowerback 6.009015 1.380845 4.784621
upperback 2.222321 2.176924 1.181405
thorax -0.943761 1.094292 -1.561235
lowerneck -10.662717 4.097184 1.414634
upperneck 5.467538 5.466888 -3.331977
head 4.003600 2.614530 -1.078415
rclavicle -0.000000 0.000000
rhumerus -15.565572 11.829242 -81.640393
rradius 47.876403
rwrist -15.452357
rhand -21.177215 16.940592
rfingers 7.125020
rthumb 5.199185 -12.896703
lclavicle -0.000000 0.000000
lhumerus -50.736999 24.720985 68.656826
lradius 20.550596
lwrist 7.148668
lhand -17.722952 23.237222
lfingers 7.125020
lthumb 8.512894 52.876122
rfemur 15.191012 5.981628 28.281769
rtibia 14.361958
rfoot -14.626977 -2.621848
rtoes -6.900432
lfemur -27.734392 -4.027868 -16.466543
ltibia 26.971652
lfoot -11.089448 16.071288
ltoes -13.362321
6
root 9.246830 17.017700 -32.897400 2.010396 1.634016 0.255996
lowerback 5.618484 1.454057 4.552427
upperback 2.046517 2.236422 1.172287
thorax -0.936301 1.117245 -1.366276
lowerneck -10.355393 4.557610 1.617630
upperneck 5.868014 6.047796 -3.132782
head 4.080834 2.912880 -1.027150
rclavicle -0.000000 0.000000
rhumerus -15.936739 11.427477 -81.655389
rradius 48.716901
rwrist -15.110435
rhand -21.091221 16.676532
rfingers 7.125020
rthumb 5.281809 -13.159172
lclavicle -0.000000 0.000000
lhumerus -50.893924 25.901097 67.634771
lradius 19.691517
lwrist 5.519832
lhand -17.692921 23.440323
lfingers 7.125020
lthumb 8.538196 53.095353
rfemur 17.643644 6.382831 28.152338
rtibia 14.293431
rfoot -13.046065 -2.939638
rtoes -11.348861
lfemur -27.155960 -3.680903 -16.856663
ltibia 27.727351
lfoot -9.581466 16.373868
ltoes -12.894038
7
root 9.219480 17.016100 -32.563300 2.030528 1.634016 0.498208
lowerback 5.226291 1.521324 4.261618
upperback 1.867503 2.280203 1.159323
thorax -0.931510 1.132447 -1.163967
lowerneck -10.054959 5.016831 1.813439
upperneck 6.268590 6.626583 -2.908984
head 4.157961 3.210887 -0.965846
rclavicle -0.000000 0.000000
rhumerus -16.344135 11.013638 -81.684358
rradius 49.495438
rwrist -14.763036
rhand -21.005891 16.420052
rfingers 7.125020
rthumb 5.363711 -13.413338
lclavicle -0.000000 0.000000
lhumerus -51.033725 27.076970 66.615460
lradius 18.834495
lwrist 3.883836
lhand -17.668020 23.636489
lfingers 7.125020
lthumb 8.558287 53.307575
rfemur 20.001111 6.779416 28.007481
rtibia 14.624720
rfoot -11.500536 -3.274188
rtoes -15.765124
lfemur -26.579883 -3.115111 -17.377045
ltibia 29.263328
lfoot -7.968603 16.528349
ltoes -12.061449
